<svg width="141" height="142" viewBox="0 0 141 142" fill="none" xmlns="http://www.w3.org/2000/svg">
<path d="M8.8125 8.875V133.125H132.188V8.875H8.8125ZM74.9062 105.391C74.9062 117.486 67.8122 123.382 57.5429 123.382C48.2677 123.382 42.8838 118.545 40.152 112.707L49.5923 106.952C51.4127 110.205 52.7951 112.957 56.769 112.957C60.0737 112.957 62.7891 111.456 62.7891 105.618V66.5625H74.9062V105.391ZM102.266 123.105C91.5013 123.105 84.5449 118.212 81.1494 111.456L90.6035 105.945C93.082 110.033 96.3179 112.757 102.032 112.757C106.835 112.757 109.625 110.616 109.625 107.279C109.625 103.277 106.752 101.86 101.451 99.5137L98.554 98.2601C90.1877 94.6768 84.6413 90.1728 84.6413 80.6627C84.6413 71.9069 91.2645 65.5114 101.616 65.5114C108.989 65.5114 114.284 67.8189 118.099 74.575L109.055 80.4297C107.066 76.8436 104.924 75.4375 101.603 75.4375C98.2071 75.4375 96.0535 77.6063 96.0535 80.4297C96.0535 83.9325 98.207 85.3498 103.175 87.5186L106.072 88.7694C115.928 93.0239 121.478 97.3671 121.478 107.118C121.48 117.63 113.282 123.105 102.266 123.105Z" fill="#FFB800"/>
</svg>
