<svg width="142" height="142" viewBox="0 0 142 142" fill="none" xmlns="http://www.w3.org/2000/svg">
<g clip-path="url(#clip0_9_109)">
<path d="M141.939 90.9882C141.531 87.6822 139.856 84.8145 136.947 82.4543C136.911 82.4103 136.871 82.3695 136.828 82.3323L136.681 82.2269L136.633 82.1936L135.089 81.0842L135.036 81.0454L134.839 80.9067C134.767 80.8646 134.689 80.832 134.609 80.8097C129.722 77.9003 121.632 75.8618 109.254 80.23C106.3 75.26 105.965 71.2774 107.942 65.1758C108.294 64.1136 107.967 63.4119 106.913 62.957C104.794 62.0557 101.893 62.5161 99.8354 63.0597C98.8758 63.3093 98.2989 63.8529 98.1159 64.6766C96.8124 70.7781 93.0239 76.3527 89.3602 81.7332L89.1438 82.0494C86.8863 77.2624 87.355 73.5543 88.9275 68.9088C89.2409 67.9825 88.9941 67.3668 88.126 66.9064C85.702 65.6556 82.066 66.5154 80.6183 66.9425C78.7823 67.4777 76.8131 72.4394 74.6138 78.3801C74.0591 79.875 73.5821 81.1536 73.2964 81.7499C72.6169 83.1366 71.9679 84.7174 71.2801 86.3954C69.727 90.1922 67.977 94.4661 65.4753 97.1507C64.5656 95.14 65.9967 91.97 67.3862 88.8942C69.0309 85.2583 70.584 81.822 68.7951 79.6282C68.5122 79.2813 68.1613 78.9961 67.764 78.79C67.3666 78.584 66.9313 78.4615 66.4848 78.4301C65.9023 78.3857 65.3176 78.4808 64.7792 78.7074C64.965 77.1404 64.9733 75.9035 64.5157 74.4086C63.8612 72.2758 62.1611 71.0804 59.8203 71.1442C54.4897 71.2995 49.9801 75.2711 47.1318 78.577C45.2348 80.7958 41.0302 82.4876 37.3388 83.9714C35.88 84.5899 34.4932 85.1445 33.3367 85.6992C31.4924 84.1406 29.1488 82.568 26.6805 80.9067C19.7469 76.2529 11.8897 70.9751 11.6179 63.8196C11.2296 53.25 23.2664 45.7534 33.7721 40.4034C41.7347 36.3542 48.6572 33.6695 54.9362 32.2024C63.7558 30.1417 71.2052 30.5577 77.0738 33.4338C80.2855 35.0063 81.7887 38.426 80.8346 41.9427C78.3385 51.0812 67.9964 57.3436 59.1519 60.1614C53.8241 61.8588 49.2895 62.5688 45.2847 62.3358C40.2648 62.0446 36.1656 59.5263 34.4128 58.453C34.132 58.2612 33.835 58.0942 33.5253 57.9538L33.4449 57.9343C33.2862 57.8948 33.1196 57.8998 32.9636 57.9488C32.8075 57.9977 32.6679 58.0887 32.5602 58.2117C32.1996 58.6416 32.3272 59.3211 32.4575 59.665C34.1632 64.1219 37.6855 66.9369 42.9245 68.0324C44.6391 68.3758 46.3844 68.5421 48.133 68.5289C60.3944 68.5289 76.0393 61.4594 81.7859 55.6379C85.7048 51.6719 88.5586 47.595 89.7401 40.5643C90.9743 33.2008 85.9821 28.0838 80.8956 25.7264C68.5344 20.0215 54.4953 22.2763 44.8936 25.1717C33.6612 28.5581 22.0405 34.7151 13.0157 42.0703C1.88871 51.1311 -2.13277 59.5429 1.05668 67.1006C4.33211 74.8468 12.3196 79.692 20.0436 84.3791C22.5397 85.8906 24.9138 87.33 27.0521 88.8166C26.4087 89.13 25.7514 89.4489 25.083 89.7679C18.5987 92.9102 11.2435 96.4463 7.16379 102.29C4.20176 106.547 3.64707 110.785 5.51637 114.887C6.5148 117.07 8.28981 118.551 10.7554 119.288C12.038 119.652 13.3662 119.828 14.6992 119.813C19.5 119.813 24.7834 117.871 27.6595 116.077C32.7404 112.887 36.0325 108.605 37.447 103.349C38.7061 98.6734 38.4038 94.0279 36.5733 89.8816L42.7997 86.742C39.7961 96.7264 42.098 102.689 44.6274 105.979C45.5593 107.191 47.24 107.92 49.1176 107.953C50.9952 107.987 52.723 107.279 53.6993 106.076C55.5464 103.788 56.9109 101.111 58.1673 98.4349C58.1007 100.182 58.1839 101.952 58.7802 103.452C59.3155 104.803 60.1975 105.698 61.3346 106.042C62.5438 106.411 63.961 106.101 65.3255 105.169C71.4743 100.961 75.6788 90.8634 79.0568 82.7455C79.5366 81.5918 79.997 80.4824 80.4436 79.4451C81.2793 82.4361 82.4419 85.3258 83.9104 88.0622C84.2376 88.6557 84.2099 88.9164 83.7661 89.4045C83.0977 90.1367 82.1659 91.0215 81.1785 91.9589C78.1888 94.7961 74.4668 98.3378 73.9676 101.452C73.7734 102.7 74.6332 103.838 75.9672 104.095C79.9804 104.894 84.8145 103.727 88.9025 100.975C92.6189 98.4792 94.0168 94.9986 93.0627 90.6609C92.1391 86.4841 94.247 81.2978 99.3279 75.235C100.16 78.7102 101.269 81.5197 102.8 83.9797L102.759 84.013C99.0589 87.244 93.989 91.6677 94.7767 97.0343C94.8428 97.5446 95.0145 98.0356 95.281 98.4759C95.5474 98.9162 95.9028 99.2961 96.3243 99.5914C96.7747 99.8955 97.2832 100.103 97.8177 100.202C98.3522 100.3 98.9013 100.287 99.4305 100.163C104.276 99.1449 107.923 97.0953 110.574 93.9031C113.226 90.7108 112.258 87.1719 111.365 84.4262C118.298 82.5458 124.472 82.593 130.252 84.5649C133.497 85.6743 135.824 87.4964 137.166 90.0119C138.855 93.1764 137.942 96.0968 134.589 98.2352C133.56 98.8925 133.064 99.2946 133.033 99.8022C133.027 99.9199 133.048 100.038 133.097 100.145C133.145 100.253 133.218 100.347 133.311 100.421C133.699 100.74 134.897 101.294 137.607 99.5886C140.103 98.0216 141.567 95.8888 141.942 93.2097C142.017 92.4711 142.016 91.7266 141.939 90.9882ZM31.0764 97.9384L31.0486 98.2934C30.616 102.354 28.5525 105.893 24.9055 108.832C22.6146 110.68 20.1268 111.814 17.9025 112.03C16.3494 112.18 15.2206 111.969 14.5495 111.401C14.0475 110.976 13.7784 110.341 13.7174 109.459C13.2626 102.393 24.3452 95.3702 30.5827 93.0599C31.0278 94.6454 31.1949 96.2959 31.0764 97.9384ZM59.4625 78.0085C58.4363 83.8577 55.4438 94.8987 50.74 99.1837C50.5154 99.3889 50.3268 99.461 50.2408 99.4416C50.1548 99.4222 50.0883 99.3196 50.0189 99.1643C48.4492 95.5255 49.0288 89.3796 51.4057 84.551C53.2334 80.8291 55.8432 78.3635 58.7608 77.6174C58.8819 77.584 59.0068 77.5663 59.1325 77.5647C59.2307 77.5578 59.3284 77.5842 59.4098 77.6396C59.4441 77.6939 59.4666 77.7548 59.4757 77.8184C59.4847 77.882 59.4803 77.9468 59.4625 78.0085ZM82.6179 99.3307C81.7332 100.254 80.5212 100.129 80.8069 99.7911L85.3109 95.0097C84.9476 96.6543 83.8743 98.0161 82.6179 99.3307ZM101.303 95.1955C100.874 95.4066 100.411 95.5372 99.9353 95.581C99.8077 93.0655 102.246 90.2338 104.65 88.3451C105.296 90.9688 103.973 93.7422 101.303 95.1955Z" fill="#F54871"/>
</g>
<defs>
<clipPath id="clip0_9_109">
<rect width="142" height="142" fill="white"/>
</clipPath>
</defs>
</svg>
